# xmcd CD database file
#
# Track frame offsets:
#	150
#	13471
#	27662
#	42089
#	54264
#	67395
#	79309
#	92638
#	106844
#	121766
#	137384
#	150278
#	164573
#	177208
#	190665
#	205475
#
# Disc length: 2907 seconds
#
# Revision: 0
# Processed by: cddbd v1.5.1PL2 Copyright (c) Steve Scherf et al.
# Submitted via: CDex 1.51
#
DISCID=d50b5910
DTITLE=Billie Holiday - Tell me more
DYEAR=1900
DGENRE=Jazz
TTITLE0=God bless the child
TTITLE1=Tell me more
TTITLE2=Gloomy Sunday
TTITLE3=Back in your own back yard
TTITLE4=That old devil called love
TTITLE5=Ghost of yesterday
TTITLE6=Under the blue jungle moon
TTITLE7=Tell me more
TTITLE8=Yesterdays
TTITLE9=I cover the waterfront
TTITLE10=Says my heart
TTITLE11=As time goes by
TTITLE12=I can't get started
TTITLE13=You're just a no account
TTITLE14=Lover man (Oh, where can you be)
TTITLE15=Dream of life
EXTD=
EXTT0=
EXTT1=
EXTT2=
EXTT3=
EXTT4=
EXTT5=
EXTT6=
EXTT7=
EXTT8=
EXTT9=
EXTT10=
EXTT11=
EXTT12=
EXTT13=
EXTT14=
EXTT15=
PLAYORDER=
